
nColumns=19
nRows=37
DataType=double
version=3
OpenSimVersion=4.4-2022-10-11-798caa840
endheader
time	ground_force_calcn_r_vx	ground_force_calcn_r_vy	ground_force_calcn_r_vz	ground_force_calcn_r_px	ground_force_calcn_r_py	ground_force_calcn_r_pz	ground_force_calcn_r_mx	ground_force_calcn_r_my	ground_force_calcn_r_mz	ground_force_calcn_l_vx	ground_force_calcn_l_vy	ground_force_calcn_l_vz	ground_force_calcn_l_px	ground_force_calcn_l_py	ground_force_calcn_l_pz	ground_force_calcn_l_mx	ground_force_calcn_l_my	ground_force_calcn_l_mz
1.05	-63.7831	90.4958	2.49682	-0.10908	0	-0.353738	-0.101761	0.144378	0.00398347	0	0	0	0	0	0	0	0	0
1.06	-382.403	600.755	-20.1083	-0.123935	0	-0.348203	-0.105794	0.166203	-0.0055631	0	0	0	0	0	0	0	0	0
1.07	-487.955	922.667	-58.8996	-0.129015	0	-0.346274	0.04835	-0.0914244	0.00583619	0	0	0	0	0	0	0	0	0
1.08	-212.7	851.407	-65.84229999999999	-0.142462	0	-0.344401	0.0101188	-0.0405039	0.00313231	0	0	0	0	0	0	0	0	0
1.09	-245.299	1142.52	-123.203	-0.177074	0	-0.339226	0.509538	-2.37326	0.255919	0	0	0	0	0	0	0	0	0
1.1	-170.178	1724.51	-165.934	-0.221106	0	-0.339495	0.887116	-8.98962	0.864989	-135.327	145.285	31.4881	-0.0775211	0	-0.8741370000000001	-0.124699	0.133875	0.0290151
1.11	-45.9744	1869.32	-195.551	-0.235233	0	-0.339247	0.320489	-13.0311	1.36319	-335.8	416.121	81.3991	-0.0842231	0	-0.867224	-0.08198179999999999	0.101591	0.0198726
1.12	-163.884	1408	-179.176	-0.209474	0	-0.335874	1.47541	-12.6759	1.61308	-178.981	376.632	60.2779	-0.09108049999999999	0	-0.858671	0.331497	-0.6975749999999999	-0.111643
1.13	-294.658	1032.36	-146.081	-0.169016	0	-0.332661	2.93462	-10.2817	1.45488	18.5928	346.797	-8.728579999999999	-0.128037	0	-0.835606	0.137819	2.57064	-0.0647008
1.14	-277.564	861.875	-113.786	-0.150593	0	-0.332764	3.40733	-10.5802	1.39682	40.1149	559.4880000000001	-29.7753	-0.171743	0	-0.817291	0.492195	6.8647	-0.365331
1.15	-237.313	788.854	-90.0436	-0.146087	0	-0.33425	3.4952	-11.6184	1.32618	21.7195	773.023	-13.8541	-0.186525	0	-0.812408	0.214559	7.63639	-0.13686
1.16	-220.659	745.821	-74.4147	-0.143151	0	-0.335343	3.3947	-11.474	1.14482	-42.3191	665.939	18.0118	-0.165505	0	-0.8150849999999999	-0.351204	5.5266	0.149479
1.17	-192.299	696.6950000000001	-70.19880000000001	-0.140961	0	-0.335413	2.7962	-10.1306	1.02075	-115.196	493.367	44.1832	-0.119809	0	-0.8215170000000001	-0.500149	2.14206	0.191831
1.18	-158.499	659.75	-80.59829999999999	-0.139899	0	-0.334148	1.92887	-8.028919999999999	0.9808519999999999	-136.006	426.822	55.3545	-0.08907180000000001	0	-0.824392	0.026701	-0.0837944	-0.0108673
1.19	-145.39	660.372	-96.61620000000001	-0.139379	0	-0.332026	1.34986	-6.13114	0.897021	-141.273	409.671	56.4321	-0.0753897	0	-0.825195	0.194202	-0.563156	-0.0775745
1.2	-138.036	680.963	-106.081	-0.139606	0	-0.330247	1.04022	-5.1316	0.799405	-136.522	401.837	49.3449	-0.06740069999999999	0	-0.825879	-0.0199648	0.0587639	0.00721612
1.21	-119.291	697.71	-105.063	-0.140676	0	-0.329038	0.8665389999999999	-5.06821	0.763182	-120.342	399.608	42.222	-0.06281390000000001	0	-0.826195	-0.215941	0.717052	0.0757626
1.22	-97.7482	710.29	-97.331	-0.141961	0	-0.328343	0.7816149999999999	-5.67962	0.7782790000000001	-110.607	415.827	41.5184	-0.0616228	0	-0.826035	-0.268686	1.01012	0.100856
1.23	-79.654	721.995	-89.5177	-0.142915	0	-0.328087	0.719164	-6.51861	0.808221	-104.889	453.148	45.4264	-0.06415510000000001	0	-0.825187	-0.222588	0.961641	0.096401
1.24	-63.9877	724.891	-83.0753	-0.143082	0	-0.328438	0.636426	-7.20982	0.826273	-90.0095	506.505	52.3723	-0.0707093	0	-0.8238	-0.118748	0.668224	0.069094
1.25	-55.0529	710.97	-75.0545	-0.14221	0	-0.329199	0.606943	-7.83825	0.8274550000000001	-66.2975	565.394	61.5929	-0.07906340000000001	0	-0.822554	-0.0333205	0.284162	0.030956
1.26	-53.1659	680.9589999999999	-65.37130000000001	-0.140712	0	-0.330081	0.667426	-8.54852	0.820648	-46.0284	616.144	71.8094	-0.0855588	0	-0.821859	0.0107284	-0.143612	-0.0167374
1.27	-55.8066	643.6799999999999	-56.7008	-0.139122	0	-0.330986	0.799123	-9.217180000000001	0.811927	-36.8722	648.228	77.28270000000001	-0.0888717	0	-0.82152	0.0124207	-0.218361	-0.0260333
1.28	-59.482	608.737	-50.7348	-0.137894	0	-0.331917	0.9396	-9.61584	0.801426	-39.5313	658.119	75.6773	-0.0892647	0	-0.821357	-0.0195547	0.325547	0.0374347
1.29	-60.9516	582.05	-47.3632	-0.137409	0	-0.33286	1.03246	-9.859389999999999	0.802289	-50.8465	648.739	71.2497	-0.08753180000000001	0	-0.8214360000000001	-0.08004550000000001	1.02128	0.112165
1.3	-61.2491	569.372	-46.8479	-0.137831	0	-0.333633	1.09122	-10.144	0.834651	-64.959	628.953	68.32170000000001	-0.0849198	0	-0.8217370000000001	-0.152095	1.47264	0.159969
1.31	-60.713	577.109	-49.0409	-0.139294	0	-0.334192	1.10651	-10.518	0.8937850000000001	-74.11969999999999	611.9	66.5864	-0.0831919	0	-0.822159	-0.234626	1.93697	0.21078
1.32	-54.6523	605.207	-52.9311	-0.141677	0	-0.334555	0.979779	-10.8498	0.948923	-75.87820000000001	612.236	65.49250000000001	-0.0836604	0	-0.8226250000000001	-0.338929	2.7347	0.292538
1.33	-40.3318	647.0700000000001	-56.5437	-0.144175	0	-0.334897	0.683217	-10.9613	0.9578449999999999	-72.89960000000001	637.346	67.9053	-0.08587590000000001	0	-0.8230229999999999	-0.416039	3.63734	0.387536
1.34	-24.5462	690.475	-57.9206	-0.146015	0	-0.335089	0.386974	-10.8854	0.913124	-65.1885	678.777	73.6885	-0.0888264	0	-0.82317	-0.428414	4.46087	0.484275
1.35	-14.46	722.769	-55.943	-0.147193	0	-0.335212	0.219331	-10.9631	0.848554	-54.2456	719.985	79.3939	-0.0914628	0	-0.823113	-0.402742	5.34548	0.589454
1.36	-11.5645	738.546	-50.6578	-0.147643	0	-0.335576	0.176852	-11.2944	0.7746960000000001	-45.829	748.575	82.8241	-0.0928968	0	-0.822873	-0.387698	6.3327	0.700664
1.37	-13.3724	737.65	-43.6025	-0.147452	0	-0.336013	0.210477	-11.6103	0.686288	-42.8499	759.0119999999999	81.8296	-0.0927212	0	-0.822586	-0.421222	7.46121	0.8043979999999999
1.38	-17.8849	725.009	-37.7525	-0.146817	0	-0.336122	0.286187	-11.6013	0.604101	-45.5814	756.204	76.63460000000001	-0.09110600000000001	0	-0.822492	-0.526932	8.741899999999999	0.885915
1.39	-22.8112	709.713	-35.4601	-0.145975	0	-0.335694	0.357202	-11.1134	0.555272	-51.1992	747.997	71.3964	-0.08847289999999999	0	-0.822824	-0.677678	9.90058	0.945011
1.4	-25.1468	702.974	-38.1593	-0.145127	0	-0.334857	0.363277	-10.1553	0.551258	-55.7233	741.574	68.54859999999999	-0.08558730000000001	0	-0.8234939999999999	-0.810759	10.7897	0.997364
1.41	-22.5729	706.875	-44.8567	-0.144271	0	-0.333986	0.283477	-8.87712	0.563322	-58.3674	741.172	68.6073	-0.08277959999999999	0	-0.824229	-0.898461	11.409	1.05609
